<mxfile host="app.diagrams.net" modified="2022-02-26T10:45:18.412Z" agent="5.0 (Windows)" etag="Q8WZGGafJslGRlHbzu4u" version="16.6.4" type="github">
  <diagram id="aoGTGHRqVcA7QcBlC3mC" name="Page-1">
    <mxGraphModel dx="782" dy="459" grid="1" gridSize="10" guides="1" tooltips="1" connect="1" arrows="1" fold="1" page="1" pageScale="1" pageWidth="827" pageHeight="1169" math="0" shadow="0">
      <root>
        <mxCell id="0" />
        <mxCell id="1" parent="0" />
        <mxCell id="DFD6Od2kpISgR3rO5dm4-13" style="edgeStyle=orthogonalEdgeStyle;rounded=1;orthogonalLoop=1;jettySize=auto;html=1;entryX=0;entryY=0.5;entryDx=0;entryDy=0;fontSize=6;strokeColor=#000000;strokeWidth=2;endArrow=none;endFill=0;exitX=0.975;exitY=0.675;exitDx=0;exitDy=0;exitPerimeter=0;fontFamily=Times New Roman;fontStyle=2" edge="1" parent="1" source="DFD6Od2kpISgR3rO5dm4-1" target="DFD6Od2kpISgR3rO5dm4-6">
          <mxGeometry relative="1" as="geometry">
            <mxPoint x="350" y="230" as="sourcePoint" />
            <Array as="points">
              <mxPoint x="370" y="267" />
              <mxPoint x="370" y="320" />
            </Array>
          </mxGeometry>
        </mxCell>
        <mxCell id="DFD6Od2kpISgR3rO5dm4-15" style="edgeStyle=orthogonalEdgeStyle;rounded=1;orthogonalLoop=1;jettySize=auto;html=1;exitX=0.5;exitY=1;exitDx=0;exitDy=0;fontSize=6;endArrow=none;endFill=0;strokeColor=#000000;strokeWidth=2;fontFamily=Times New Roman;fontStyle=2" edge="1" parent="1" source="DFD6Od2kpISgR3rO5dm4-1" target="DFD6Od2kpISgR3rO5dm4-8">
          <mxGeometry relative="1" as="geometry" />
        </mxCell>
        <mxCell id="DFD6Od2kpISgR3rO5dm4-17" style="edgeStyle=orthogonalEdgeStyle;rounded=1;orthogonalLoop=1;jettySize=auto;html=1;exitX=0.5;exitY=0;exitDx=0;exitDy=0;entryX=0;entryY=0;entryDx=0;entryDy=0;fontSize=6;endArrow=none;endFill=0;strokeColor=#000000;strokeWidth=2;fontFamily=Times New Roman;fontStyle=2" edge="1" parent="1" source="DFD6Od2kpISgR3rO5dm4-1" target="DFD6Od2kpISgR3rO5dm4-5">
          <mxGeometry relative="1" as="geometry">
            <Array as="points">
              <mxPoint x="280" y="220" />
              <mxPoint x="347" y="220" />
              <mxPoint x="347" y="190" />
              <mxPoint x="400" y="190" />
            </Array>
          </mxGeometry>
        </mxCell>
        <mxCell id="DFD6Od2kpISgR3rO5dm4-1" value="&lt;font&gt;&lt;b&gt;&lt;font style=&quot;font-size: 18px&quot;&gt;n&lt;font style=&quot;font-size: 10px&quot;&gt;1&lt;/font&gt;&lt;/font&gt;&lt;/b&gt;&lt;/font&gt;" style="ellipse;whiteSpace=wrap;html=1;aspect=fixed;fontSize=6;strokeColor=#6c8ebf;strokeWidth=2;fillColor=#dae8fc;fontFamily=Times New Roman;fontStyle=2" vertex="1" parent="1">
          <mxGeometry x="260" y="240" width="40" height="40" as="geometry" />
        </mxCell>
        <mxCell id="DFD6Od2kpISgR3rO5dm4-20" style="edgeStyle=orthogonalEdgeStyle;rounded=1;orthogonalLoop=1;jettySize=auto;html=1;exitX=0;exitY=0;exitDx=0;exitDy=0;entryX=0.35;entryY=1;entryDx=0;entryDy=0;entryPerimeter=0;fontSize=6;endArrow=none;endFill=0;strokeColor=#000000;strokeWidth=2;fontFamily=Times New Roman;fontStyle=2" edge="1" parent="1" source="DFD6Od2kpISgR3rO5dm4-4" target="DFD6Od2kpISgR3rO5dm4-6">
          <mxGeometry relative="1" as="geometry" />
        </mxCell>
        <mxCell id="DFD6Od2kpISgR3rO5dm4-23" style="edgeStyle=orthogonalEdgeStyle;rounded=1;orthogonalLoop=1;jettySize=auto;html=1;exitX=1;exitY=0.5;exitDx=0;exitDy=0;entryX=0;entryY=1;entryDx=0;entryDy=0;fontSize=6;endArrow=none;endFill=0;strokeColor=#000000;strokeWidth=2;fontFamily=Times New Roman;fontStyle=2" edge="1" parent="1" source="DFD6Od2kpISgR3rO5dm4-4" target="DFD6Od2kpISgR3rO5dm4-9">
          <mxGeometry relative="1" as="geometry" />
        </mxCell>
        <mxCell id="DFD6Od2kpISgR3rO5dm4-25" style="edgeStyle=orthogonalEdgeStyle;rounded=1;orthogonalLoop=1;jettySize=auto;html=1;exitX=0.5;exitY=1;exitDx=0;exitDy=0;entryX=0.5;entryY=1;entryDx=0;entryDy=0;fontSize=6;endArrow=none;endFill=0;strokeColor=#000000;strokeWidth=2;fontFamily=Times New Roman;fontStyle=2" edge="1" parent="1" source="DFD6Od2kpISgR3rO5dm4-4" target="DFD6Od2kpISgR3rO5dm4-10">
          <mxGeometry relative="1" as="geometry" />
        </mxCell>
        <mxCell id="DFD6Od2kpISgR3rO5dm4-4" value="&lt;b&gt;&lt;font style=&quot;font-size: 18px&quot;&gt;n&lt;font style=&quot;font-size: 10px&quot;&gt;5&lt;/font&gt;&lt;/font&gt;&lt;/b&gt;" style="ellipse;whiteSpace=wrap;html=1;aspect=fixed;fontSize=6;strokeColor=#6c8ebf;strokeWidth=2;fillColor=#dae8fc;fontFamily=Times New Roman;fontStyle=2" vertex="1" parent="1">
          <mxGeometry x="414" y="390" width="40" height="40" as="geometry" />
        </mxCell>
        <mxCell id="DFD6Od2kpISgR3rO5dm4-18" style="edgeStyle=orthogonalEdgeStyle;rounded=1;orthogonalLoop=1;jettySize=auto;html=1;exitX=0.5;exitY=1;exitDx=0;exitDy=0;entryX=0.5;entryY=0;entryDx=0;entryDy=0;fontSize=6;endArrow=none;endFill=0;strokeColor=#000000;strokeWidth=2;fontFamily=Times New Roman;fontStyle=2" edge="1" parent="1" source="DFD6Od2kpISgR3rO5dm4-5" target="DFD6Od2kpISgR3rO5dm4-6">
          <mxGeometry relative="1" as="geometry">
            <Array as="points">
              <mxPoint x="414" y="265" />
              <mxPoint x="421" y="265" />
              <mxPoint x="421" y="300" />
            </Array>
          </mxGeometry>
        </mxCell>
        <mxCell id="DFD6Od2kpISgR3rO5dm4-19" style="edgeStyle=orthogonalEdgeStyle;rounded=1;orthogonalLoop=1;jettySize=auto;html=1;exitX=1;exitY=0;exitDx=0;exitDy=0;entryX=0;entryY=0;entryDx=0;entryDy=0;fontSize=6;endArrow=none;endFill=0;strokeColor=#000000;strokeWidth=2;fontFamily=Times New Roman;fontStyle=2" edge="1" parent="1" source="DFD6Od2kpISgR3rO5dm4-5" target="DFD6Od2kpISgR3rO5dm4-7">
          <mxGeometry relative="1" as="geometry" />
        </mxCell>
        <mxCell id="DFD6Od2kpISgR3rO5dm4-5" value="&lt;b&gt;&lt;font style=&quot;font-size: 18px&quot;&gt;n&lt;font style=&quot;font-size: 10px&quot;&gt;3&lt;/font&gt;&lt;/font&gt;&lt;/b&gt;" style="ellipse;whiteSpace=wrap;html=1;aspect=fixed;fontSize=6;strokeColor=#6c8ebf;strokeWidth=2;fillColor=#dae8fc;fontFamily=Times New Roman;fontStyle=2" vertex="1" parent="1">
          <mxGeometry x="394" y="190" width="40" height="40" as="geometry" />
        </mxCell>
        <mxCell id="DFD6Od2kpISgR3rO5dm4-21" style="edgeStyle=orthogonalEdgeStyle;rounded=1;orthogonalLoop=1;jettySize=auto;html=1;exitX=1;exitY=0.5;exitDx=0;exitDy=0;entryX=0;entryY=0.5;entryDx=0;entryDy=0;fontSize=6;endArrow=none;endFill=0;strokeColor=#000000;strokeWidth=2;fontFamily=Times New Roman;fontStyle=2" edge="1" parent="1" source="DFD6Od2kpISgR3rO5dm4-6" target="DFD6Od2kpISgR3rO5dm4-9">
          <mxGeometry relative="1" as="geometry" />
        </mxCell>
        <mxCell id="DFD6Od2kpISgR3rO5dm4-6" value="&lt;b&gt;&lt;font style=&quot;font-size: 18px&quot;&gt;n&lt;font style=&quot;font-size: 10px&quot;&gt;4&lt;/font&gt;&lt;/font&gt;&lt;/b&gt;" style="ellipse;whiteSpace=wrap;html=1;aspect=fixed;fontSize=6;strokeColor=#6c8ebf;strokeWidth=2;fillColor=#dae8fc;fontFamily=Times New Roman;fontStyle=2" vertex="1" parent="1">
          <mxGeometry x="394" y="300" width="40" height="40" as="geometry" />
        </mxCell>
        <mxCell id="DFD6Od2kpISgR3rO5dm4-22" style="edgeStyle=orthogonalEdgeStyle;rounded=1;orthogonalLoop=1;jettySize=auto;html=1;exitX=1;exitY=1;exitDx=0;exitDy=0;entryX=0.5;entryY=0;entryDx=0;entryDy=0;fontSize=6;endArrow=none;endFill=0;strokeColor=#000000;strokeWidth=2;fontFamily=Times New Roman;fontStyle=2" edge="1" parent="1" source="DFD6Od2kpISgR3rO5dm4-7" target="DFD6Od2kpISgR3rO5dm4-9">
          <mxGeometry relative="1" as="geometry" />
        </mxCell>
        <mxCell id="DFD6Od2kpISgR3rO5dm4-7" value="&lt;b&gt;&lt;font style=&quot;font-size: 18px&quot;&gt;n&lt;font style=&quot;font-size: 10px&quot;&gt;6&lt;/font&gt;&lt;/font&gt;&lt;/b&gt;" style="ellipse;whiteSpace=wrap;html=1;aspect=fixed;fontSize=6;strokeColor=#6c8ebf;strokeWidth=2;fillColor=#dae8fc;fontFamily=Times New Roman;fontStyle=2" vertex="1" parent="1">
          <mxGeometry x="490" y="190" width="40" height="40" as="geometry" />
        </mxCell>
        <mxCell id="DFD6Od2kpISgR3rO5dm4-16" style="edgeStyle=orthogonalEdgeStyle;rounded=1;orthogonalLoop=1;jettySize=auto;html=1;exitX=1;exitY=0.5;exitDx=0;exitDy=0;entryX=0;entryY=1;entryDx=0;entryDy=0;fontSize=6;endArrow=none;endFill=0;strokeColor=#000000;strokeWidth=2;fontFamily=Times New Roman;fontStyle=2" edge="1" parent="1" source="DFD6Od2kpISgR3rO5dm4-8" target="DFD6Od2kpISgR3rO5dm4-6">
          <mxGeometry relative="1" as="geometry" />
        </mxCell>
        <mxCell id="DFD6Od2kpISgR3rO5dm4-8" value="&lt;b&gt;&lt;font style=&quot;font-size: 18px&quot;&gt;n&lt;font style=&quot;font-size: 10px&quot;&gt;2&lt;/font&gt;&lt;/font&gt;&lt;/b&gt;" style="ellipse;whiteSpace=wrap;html=1;aspect=fixed;fontSize=6;strokeColor=#6c8ebf;strokeWidth=2;fillColor=#dae8fc;fontFamily=Times New Roman;fontStyle=2" vertex="1" parent="1">
          <mxGeometry x="300" y="340" width="40" height="40" as="geometry" />
        </mxCell>
        <mxCell id="DFD6Od2kpISgR3rO5dm4-24" style="edgeStyle=orthogonalEdgeStyle;rounded=1;orthogonalLoop=1;jettySize=auto;html=1;exitX=0.5;exitY=1;exitDx=0;exitDy=0;entryX=1;entryY=0;entryDx=0;entryDy=0;fontSize=6;endArrow=none;endFill=0;strokeColor=#000000;strokeWidth=2;fontFamily=Times New Roman;fontStyle=2" edge="1" parent="1" source="DFD6Od2kpISgR3rO5dm4-9" target="DFD6Od2kpISgR3rO5dm4-10">
          <mxGeometry relative="1" as="geometry" />
        </mxCell>
        <mxCell id="DFD6Od2kpISgR3rO5dm4-9" value="&lt;b&gt;&lt;font style=&quot;font-size: 18px&quot;&gt;n&lt;font style=&quot;font-size: 10px&quot;&gt;7&lt;/font&gt;&lt;/font&gt;&lt;/b&gt;" style="ellipse;whiteSpace=wrap;html=1;aspect=fixed;fontSize=6;strokeColor=#6c8ebf;strokeWidth=2;fillColor=#dae8fc;fontFamily=Times New Roman;fontStyle=2" vertex="1" parent="1">
          <mxGeometry x="550" y="280" width="40" height="40" as="geometry" />
        </mxCell>
        <mxCell id="DFD6Od2kpISgR3rO5dm4-10" value="&lt;b&gt;&lt;font style=&quot;font-size: 18px&quot;&gt;n&lt;font style=&quot;font-size: 10px&quot;&gt;8&lt;/font&gt;&lt;/font&gt;&lt;/b&gt;" style="ellipse;whiteSpace=wrap;html=1;aspect=fixed;fontSize=6;strokeColor=#6c8ebf;strokeWidth=2;fillColor=#dae8fc;fontFamily=Times New Roman;fontStyle=2" vertex="1" parent="1">
          <mxGeometry x="580" y="380" width="40" height="40" as="geometry" />
        </mxCell>
        <mxCell id="DFD6Od2kpISgR3rO5dm4-26" value="&lt;font style=&quot;font-size: 24px&quot; face=&quot;Times New Roman&quot;&gt;&lt;i&gt;N&lt;/i&gt;={&lt;i&gt;n&lt;font style=&quot;font-size: 11px&quot;&gt;1&lt;/font&gt;,n&lt;font style=&quot;font-size: 12px&quot;&gt;2&lt;/font&gt;,n&lt;font style=&quot;font-size: 12px&quot;&gt;3&lt;/font&gt;,n&lt;font style=&quot;font-size: 12px&quot;&gt;4&lt;/font&gt;,n&lt;font style=&quot;font-size: 12px&quot;&gt;5&lt;/font&gt;,n&lt;font style=&quot;font-size: 12px&quot;&gt;6&lt;/font&gt;,n&lt;font style=&quot;font-size: 12px&quot;&gt;7&lt;/font&gt;,n&lt;font style=&quot;font-size: 12px&quot; size=&quot;3&quot;&gt;8&lt;/font&gt;&lt;/i&gt;}&lt;/font&gt;" style="text;html=1;strokeColor=none;fillColor=none;align=center;verticalAlign=middle;whiteSpace=wrap;rounded=0;fontSize=10;" vertex="1" parent="1">
          <mxGeometry x="414" y="480" width="60" height="30" as="geometry" />
        </mxCell>
        <mxCell id="DFD6Od2kpISgR3rO5dm4-30" value="&lt;font style=&quot;font-size: 18px&quot; face=&quot;Times New Roman&quot;&gt;&lt;b&gt;&lt;font style=&quot;font-size: 18px&quot;&gt;e&lt;font style=&quot;font-size: 10px&quot;&gt;2&lt;/font&gt;&lt;/font&gt;&lt;/b&gt;&lt;/font&gt;" style="text;html=1;strokeColor=none;fillColor=none;align=center;verticalAlign=middle;whiteSpace=wrap;rounded=0;fontFamily=Times New Roman;fontSize=12;" vertex="1" parent="1">
          <mxGeometry x="320" y="260" width="60" height="30" as="geometry" />
        </mxCell>
        <mxCell id="DFD6Od2kpISgR3rO5dm4-31" value="&lt;font style=&quot;font-size: 18px&quot; face=&quot;Times New Roman&quot;&gt;&lt;b&gt;&lt;font style=&quot;font-size: 18px&quot;&gt;e&lt;font style=&quot;font-size: 10px&quot;&gt;4&lt;/font&gt;&lt;/font&gt;&lt;/b&gt;&lt;/font&gt;" style="text;html=1;strokeColor=none;fillColor=none;align=center;verticalAlign=middle;whiteSpace=wrap;rounded=0;fontFamily=Times New Roman;fontSize=12;" vertex="1" parent="1">
          <mxGeometry x="430" y="160" width="60" height="30" as="geometry" />
        </mxCell>
        <mxCell id="DFD6Od2kpISgR3rO5dm4-32" value="&lt;font style=&quot;font-size: 18px&quot; face=&quot;Times New Roman&quot;&gt;&lt;b&gt;&lt;font style=&quot;font-size: 18px&quot;&gt;e&lt;font style=&quot;font-size: 10px&quot;&gt;10&lt;/font&gt;&lt;/font&gt;&lt;/b&gt;&lt;/font&gt;" style="text;html=1;strokeColor=none;fillColor=none;align=center;verticalAlign=middle;whiteSpace=wrap;rounded=0;fontFamily=Times New Roman;fontSize=12;" vertex="1" parent="1">
          <mxGeometry x="560" y="210" width="60" height="30" as="geometry" />
        </mxCell>
        <mxCell id="DFD6Od2kpISgR3rO5dm4-33" value="&lt;font style=&quot;font-size: 18px&quot; face=&quot;Times New Roman&quot;&gt;&lt;b&gt;&lt;font style=&quot;font-size: 18px&quot;&gt;e&lt;font style=&quot;font-size: 10px&quot;&gt;1&lt;/font&gt;&lt;/font&gt;&lt;/b&gt;&lt;/font&gt;" style="text;html=1;strokeColor=none;fillColor=none;align=center;verticalAlign=middle;whiteSpace=wrap;rounded=0;fontFamily=Times New Roman;fontSize=12;" vertex="1" parent="1">
          <mxGeometry x="300" y="190" width="60" height="30" as="geometry" />
        </mxCell>
        <mxCell id="DFD6Od2kpISgR3rO5dm4-34" value="&lt;font style=&quot;font-size: 18px&quot; face=&quot;Times New Roman&quot;&gt;&lt;b&gt;&lt;font style=&quot;font-size: 18px&quot;&gt;e&lt;font style=&quot;font-size: 10px&quot;&gt;4&lt;/font&gt;&lt;/font&gt;&lt;/b&gt;&lt;/font&gt;" style="text;html=1;strokeColor=none;fillColor=none;align=center;verticalAlign=middle;whiteSpace=wrap;rounded=0;fontFamily=Times New Roman;fontSize=12;" vertex="1" parent="1">
          <mxGeometry x="340" y="350" width="60" height="30" as="geometry" />
        </mxCell>
        <mxCell id="DFD6Od2kpISgR3rO5dm4-36" value="&lt;font style=&quot;font-size: 18px&quot; face=&quot;Times New Roman&quot;&gt;&lt;b&gt;&lt;font style=&quot;font-size: 18px&quot;&gt;e&lt;font style=&quot;font-size: 10px&quot;&gt;3&lt;/font&gt;&lt;/font&gt;&lt;/b&gt;&lt;/font&gt;" style="text;html=1;strokeColor=none;fillColor=none;align=center;verticalAlign=middle;whiteSpace=wrap;rounded=0;fontFamily=Times New Roman;fontSize=12;" vertex="1" parent="1">
          <mxGeometry x="240" y="300" width="60" height="30" as="geometry" />
        </mxCell>
        <mxCell id="DFD6Od2kpISgR3rO5dm4-41" value="&lt;font style=&quot;font-size: 18px&quot; face=&quot;Times New Roman&quot;&gt;&lt;b&gt;&lt;font style=&quot;font-size: 18px&quot;&gt;e&lt;font style=&quot;font-size: 10px&quot;&gt;7&lt;/font&gt;&lt;/font&gt;&lt;/b&gt;&lt;/font&gt;" style="text;html=1;strokeColor=none;fillColor=none;align=center;verticalAlign=middle;whiteSpace=wrap;rounded=0;fontFamily=Times New Roman;fontSize=12;" vertex="1" parent="1">
          <mxGeometry x="404" y="350" width="60" height="30" as="geometry" />
        </mxCell>
        <mxCell id="DFD6Od2kpISgR3rO5dm4-42" value="&lt;font style=&quot;font-size: 18px&quot; face=&quot;Times New Roman&quot;&gt;&lt;b&gt;&lt;font style=&quot;font-size: 18px&quot;&gt;e&lt;font style=&quot;font-size: 10px&quot;&gt;6&lt;/font&gt;&lt;/font&gt;&lt;/b&gt;&lt;/font&gt;" style="text;html=1;strokeColor=none;fillColor=none;align=center;verticalAlign=middle;whiteSpace=wrap;rounded=0;fontFamily=Times New Roman;fontSize=12;" vertex="1" parent="1">
          <mxGeometry x="450" y="290" width="60" height="30" as="geometry" />
        </mxCell>
        <mxCell id="DFD6Od2kpISgR3rO5dm4-43" value="&lt;font style=&quot;font-size: 18px&quot; face=&quot;Times New Roman&quot;&gt;&lt;b&gt;&lt;font style=&quot;font-size: 18px&quot;&gt;e&lt;font style=&quot;font-size: 10px&quot;&gt;5&lt;/font&gt;&lt;/font&gt;&lt;/b&gt;&lt;/font&gt;" style="text;html=1;strokeColor=none;fillColor=none;align=center;verticalAlign=middle;whiteSpace=wrap;rounded=0;fontFamily=Times New Roman;fontSize=12;" vertex="1" parent="1">
          <mxGeometry x="400" y="240" width="60" height="30" as="geometry" />
        </mxCell>
        <mxCell id="DFD6Od2kpISgR3rO5dm4-44" value="&lt;font style=&quot;font-size: 18px&quot; face=&quot;Times New Roman&quot;&gt;&lt;b&gt;&lt;font style=&quot;font-size: 18px&quot;&gt;e&lt;font style=&quot;font-size: 10px&quot;&gt;8&lt;/font&gt;&lt;/font&gt;&lt;/b&gt;&lt;/font&gt;" style="text;html=1;strokeColor=none;fillColor=none;align=center;verticalAlign=middle;whiteSpace=wrap;rounded=0;fontFamily=Times New Roman;fontSize=12;" vertex="1" parent="1">
          <mxGeometry x="510" y="380" width="60" height="30" as="geometry" />
        </mxCell>
        <mxCell id="DFD6Od2kpISgR3rO5dm4-45" value="&lt;font style=&quot;font-size: 18px&quot; face=&quot;Times New Roman&quot;&gt;&lt;b&gt;&lt;font style=&quot;font-size: 18px&quot;&gt;e&lt;font style=&quot;font-size: 10px&quot;&gt;9&lt;/font&gt;&lt;/font&gt;&lt;/b&gt;&lt;/font&gt;" style="text;html=1;strokeColor=none;fillColor=none;align=center;verticalAlign=middle;whiteSpace=wrap;rounded=0;fontFamily=Times New Roman;fontSize=12;" vertex="1" parent="1">
          <mxGeometry x="500" y="450" width="60" height="30" as="geometry" />
        </mxCell>
        <mxCell id="DFD6Od2kpISgR3rO5dm4-46" value="&lt;font style=&quot;font-size: 18px&quot; face=&quot;Times New Roman&quot;&gt;&lt;b&gt;&lt;font style=&quot;font-size: 18px&quot;&gt;e&lt;font style=&quot;font-size: 10px&quot;&gt;11&lt;/font&gt;&lt;/font&gt;&lt;/b&gt;&lt;/font&gt;" style="text;html=1;strokeColor=none;fillColor=none;align=center;verticalAlign=middle;whiteSpace=wrap;rounded=0;fontFamily=Times New Roman;fontSize=12;" vertex="1" parent="1">
          <mxGeometry x="600" y="340" width="60" height="30" as="geometry" />
        </mxCell>
        <mxCell id="DFD6Od2kpISgR3rO5dm4-47" value="&lt;font style=&quot;font-size: 24px&quot; face=&quot;Times New Roman&quot;&gt;&lt;i&gt;E&lt;/i&gt;={&lt;i&gt;e&lt;font style=&quot;font-size: 11px&quot;&gt;1&lt;/font&gt;,e&lt;font style=&quot;font-size: 12px&quot;&gt;2&lt;/font&gt;,e&lt;font style=&quot;font-size: 12px&quot;&gt;3&lt;/font&gt;,e&lt;font style=&quot;font-size: 12px&quot;&gt;4&lt;/font&gt;,e&lt;font style=&quot;font-size: 12px&quot;&gt;5&lt;/font&gt;,e&lt;font style=&quot;font-size: 12px&quot;&gt;6&lt;/font&gt;,e&lt;font style=&quot;font-size: 12px&quot;&gt;7&lt;/font&gt;,e&lt;font style=&quot;font-size: 12px&quot; size=&quot;3&quot;&gt;8&lt;/font&gt;&lt;/i&gt;&lt;/font&gt;&lt;font style=&quot;font-size: 24px&quot; face=&quot;Times New Roman&quot;&gt;&lt;i&gt;&lt;font style=&quot;font-size: 12px&quot; size=&quot;3&quot;&gt;&lt;font style=&quot;font-size: 24px&quot; face=&quot;Times New Roman&quot;&gt;&lt;i&gt;,e&lt;font style=&quot;font-size: 12px&quot; size=&quot;3&quot;&gt;9&lt;/font&gt;&lt;/i&gt;&lt;/font&gt;&lt;/font&gt;&lt;/i&gt;&lt;/font&gt;&lt;font style=&quot;font-size: 24px&quot; face=&quot;Times New Roman&quot;&gt;&lt;i&gt;&lt;font style=&quot;font-size: 12px&quot; size=&quot;3&quot;&gt;&lt;font style=&quot;font-size: 24px&quot; face=&quot;Times New Roman&quot;&gt;&lt;i&gt;&lt;font style=&quot;font-size: 12px&quot; size=&quot;3&quot;&gt;&lt;font style=&quot;font-size: 24px&quot; face=&quot;Times New Roman&quot;&gt;&lt;i&gt;,e&lt;font style=&quot;font-size: 12px&quot; size=&quot;3&quot;&gt;10&lt;/font&gt;&lt;/i&gt;&lt;/font&gt;&lt;/font&gt;&lt;/i&gt;&lt;/font&gt;&lt;/font&gt;&lt;/i&gt;&lt;/font&gt;&lt;font style=&quot;font-size: 24px&quot; face=&quot;Times New Roman&quot;&gt;&lt;i&gt;&lt;font style=&quot;font-size: 12px&quot; size=&quot;3&quot;&gt;&lt;font style=&quot;font-size: 24px&quot; face=&quot;Times New Roman&quot;&gt;&lt;i&gt;&lt;font style=&quot;font-size: 12px&quot; size=&quot;3&quot;&gt;&lt;font style=&quot;font-size: 24px&quot; face=&quot;Times New Roman&quot;&gt;&lt;i&gt;&lt;font style=&quot;font-size: 12px&quot; size=&quot;3&quot;&gt;&lt;font style=&quot;font-size: 24px&quot; face=&quot;Times New Roman&quot;&gt;&lt;i&gt;,e&lt;font style=&quot;font-size: 12px&quot; size=&quot;3&quot;&gt;11&lt;/font&gt;&lt;/i&gt;&lt;/font&gt;&lt;/font&gt;&lt;/i&gt;&lt;/font&gt;&lt;/font&gt;&lt;/i&gt;&lt;/font&gt;&lt;/font&gt;&lt;/i&gt;}&lt;/font&gt;" style="text;html=1;strokeColor=none;fillColor=none;align=center;verticalAlign=middle;whiteSpace=wrap;rounded=0;fontSize=10;" vertex="1" parent="1">
          <mxGeometry x="446" y="523" width="60" height="30" as="geometry" />
        </mxCell>
        <mxCell id="DFD6Od2kpISgR3rO5dm4-48" value="&lt;font style=&quot;font-size: 24px&quot; face=&quot;Times New Roman&quot;&gt;&lt;i&gt;ne(&lt;/i&gt;&lt;/font&gt;&lt;font style=&quot;font-size: 24px&quot; face=&quot;Times New Roman&quot;&gt;&lt;i&gt;&lt;font style=&quot;font-size: 24px&quot; face=&quot;Times New Roman&quot;&gt;&lt;i&gt;n&lt;font style=&quot;font-size: 12px&quot;&gt;4&lt;/font&gt;&lt;/i&gt;&lt;/font&gt;)&lt;/i&gt;={&lt;/font&gt;&lt;font style=&quot;font-size: 24px&quot; face=&quot;Times New Roman&quot;&gt;&lt;font style=&quot;font-size: 24px&quot; face=&quot;Times New Roman&quot;&gt;&lt;i&gt;n&lt;font style=&quot;font-size: 11px&quot;&gt;1&lt;/font&gt;,n&lt;font style=&quot;font-size: 12px&quot;&gt;2&lt;/font&gt;,n&lt;font style=&quot;font-size: 12px&quot;&gt;3&lt;/font&gt;,n&lt;font style=&quot;font-size: 12px&quot;&gt;5&lt;/font&gt;,n&lt;font style=&quot;font-size: 12px&quot;&gt;7&lt;/font&gt;&lt;/i&gt;&lt;/font&gt;}&lt;/font&gt;" style="text;html=1;strokeColor=none;fillColor=none;align=center;verticalAlign=middle;whiteSpace=wrap;rounded=0;fontSize=10;" vertex="1" parent="1">
          <mxGeometry x="259" y="553" width="339" height="57" as="geometry" />
        </mxCell>
      </root>
    </mxGraphModel>
  </diagram>
</mxfile>
